<svg xmlns="http://www.w3.org/2000/svg" xmlns:xlink="http://www.w3.org/1999/xlink" width="100" zoomAndPan="magnify" viewBox="0 0 75.119995 83.04" height="100" preserveAspectRatio="xMidYMid meet" version="1.0"><defs><clipPath id="bc6b177276"><path d="M 3.925781 4.914062 L 70.644531 4.914062 L 70.644531 71.632812 L 3.925781 71.632812 Z M 3.925781 4.914062 " clip-rule="nonzero"/></clipPath></defs><g clip-path="url(#bc6b177276)"><path fill="#ffffff" d="M 60.949219 14.039062 C 54.640625 8.179688 46.257812 4.957031 37.34375 4.957031 C 28.433594 4.957031 20.050781 8.179688 13.742188 14.039062 C 7.410156 19.914062 3.925781 27.734375 3.925781 36.054688 C 3.925781 45.199219 8.195312 53.796875 15.664062 59.71875 L 15.664062 70.574219 C 15.664062 70.921875 15.84375 71.246094 16.140625 71.429688 C 16.300781 71.53125 16.488281 71.582031 16.671875 71.582031 C 16.824219 71.582031 16.976562 71.550781 17.121094 71.480469 L 28.277344 65.992188 C 31.214844 66.761719 34.265625 67.152344 37.34375 67.152344 C 46.257812 67.152344 54.640625 63.925781 60.949219 58.070312 C 67.277344 52.195312 70.765625 44.375 70.765625 36.054688 C 70.765625 27.734375 67.277344 19.914062 60.949219 14.039062 Z M 57.984375 28.15625 L 41.195312 46.601562 C 41.136719 46.667969 41.046875 46.710938 40.957031 46.710938 C 40.953125 46.710938 40.949219 46.710938 40.949219 46.710938 C 40.859375 46.710938 40.773438 46.675781 40.710938 46.613281 L 32.078125 37.980469 L 17.066406 46.152344 C 16.917969 46.234375 16.734375 46.191406 16.636719 46.058594 C 16.535156 45.925781 16.546875 45.738281 16.667969 45.617188 L 33.765625 28.519531 C 33.898438 28.386719 34.113281 28.386719 34.242188 28.519531 L 42.605469 36.878906 L 57.558594 27.640625 C 57.703125 27.554688 57.886719 27.582031 57.996094 27.710938 C 58.101562 27.84375 58.097656 28.03125 57.984375 28.15625 Z M 57.984375 28.15625 " fill-opacity="1" fill-rule="nonzero"/></g></svg>